# xmcd CD database file
# Generated: Tue Apr 20 04:58:43 2004 by KSCD
# 
# Track frame offsets:
#       150
#       11681
#       26026
#       43573
#       59039
#       77168
#       94545
#       112547
#       127356
#       146821
#       161465
#       176399
#       189053
#       201741
#       213939
#       230248
#       245937
#       258438
#       269343
#       288849
#       299593
#       318585
#       336646
#
# Disc length: 4746 seconds
#
# Revision: 19
# Processed by: cddbd v1.5PL3 Copyright (c) Steve Scherf et al.
# Submitted via: Kscd 1.3.3
#
DISCID=6b128817
DTITLE=poison kraze nan bouillon - tout bagay
DYEAR=1900
DGENRE=
TTITLE0=chicago
TTITLE1=le vrai soleil
TTITLE2=acompana me tu
TTITLE3=il est deja trop tard
TTITLE4=petite fille
TTITLE5=est-ce que tu es seule ce soir
TTITLE6=Ca commence come une histoire d'amour
TTITLE7=N'oublies jamais
TTITLE8=toutes ces nuits sans someil
TTITLE9=Belle tu es belle mon amour
TTITLE10=Allo
TTITLE11=
TTITLE12=Paris Paris de mon enfance
TTITLE13=On dit qu'un Homme - ca ne doit pas pleurer
TTITLE14=aimer pour la vie
TTITLE15=Agropolis adieu
TTITLE16=Pourquoi le monde est sans amour
TTITLE17=C'est ton mon
TTITLE18=La mere
TTITLE19=
TTITLE20=Je suis une femme amoureuse
TTITLE21=A blueBayou
TTITLE22=
EXTD=
EXTT0=
EXTT1=
EXTT2=
EXTT3=
EXTT4=
EXTT5=
EXTT6=
EXTT7=
EXTT8=
EXTT9=
EXTT10=
EXTT11=
EXTT12=
EXTT13=
EXTT14=
EXTT15=
EXTT16=
EXTT17=
EXTT18=
EXTT19=
EXTT20=
EXTT21=
EXTT22=
PLAYORDER=
